<?xml version="1.0" encoding="utf-8"?>
<!-- Generator: Adobe Illustrator 18.0.0, SVG Export Plug-In . SVG Version: 6.00 Build 0)  -->
<!DOCTYPE svg PUBLIC "-//W3C//DTD SVG 1.1//EN" "http://www.w3.org/Graphics/SVG/1.1/DTD/svg11.dtd">
<svg version="1.1" id="Layer_1" xmlns="http://www.w3.org/2000/svg" xmlns:xlink="http://www.w3.org/1999/xlink" x="0px" y="0px"
	 viewBox="256 346 100 100" enable-background="new 256 346 100 100" xml:space="preserve">
<path fill="#FFFFFF" d="M356,446H256V346h100V446z M266.2,380.7c-2,1.7,0.5,16.3,1.4,19.8c1.2,7,7.4,24.6,13.8,32.6
	c7.7,9.7,16,0.8,25.7,0.5c9.4-0.2,16.7,5.9,25.4-0.5c8.7-6.4,13.8-39.6,14.1-45.4c0.3-5.7-3.4-3.3-5.6-2.9c-2.2,0.4-3.8-1.5-5.7-0.4
	c-1.9,1.1-1.2,11.8-2.2,17.1c-1,5.3-3.8,23.4-11.3,24.7c-7.5,1.4-9.7-8.2-14.5-8.1c-5,0.1-5.1,10.2-13.4,9.6
	c-8.3-0.6-12.7-23.2-13.4-27.9c-0.7-4.6-1-12.3-1.8-17.1c-0.8-4.8-5-1.7-7.3-1.9C268.8,380.7,268,379.2,266.2,380.7z M299.8,390.1
	c1.1,8.5,3.8,17.6,5,19c2.3,2.5,6.2,1.3,7.2-1.1c1-2.4,0.6-13,0-19.4c-0.6-6.5-1.1-8.8-2.1-11.5c-0.9-2.7-5.7-2.8-8-1.8
	C299.4,376.3,298.9,382.8,299.8,390.1z M299.5,360.5c0,3.6,2.9,6.6,6.6,6.6c3.6,0,6.6-2.9,6.6-6.6c0-3.6-2.9-6.6-6.6-6.6
	C302.5,353.9,299.5,356.8,299.5,360.5z"/>
</svg>
