<?xml version="1.0" encoding="utf-8"?>
<!-- Generator: Adobe Illustrator 19.0.0, SVG Export Plug-In . SVG Version: 6.00 Build 0)  -->
<svg xmlns:xlink="http://www.w3.org/1999/xlink" version="1.1" id="Layer_1" xmlns="http://www.w3.org/2000/svg" x="0px" y="0px"
	 viewBox="42 -42 100 100" style="enable-background:new 42 -42 100 100;" xml:space="preserve">
<style type="text/css">
	.st0{fill:#FFFFFF;}
</style>
<path class="st0" d="M142,58H42V-42h100V58z M52.2-7.3c-2,1.7,0.5,16.3,1.4,19.8c1.2,7,7.4,24.6,13.8,32.6c7.7,9.7,16,0.8,25.7,0.5
	c9.4-0.2,16.7,5.9,25.4-0.5c8.7-6.4,13.8-39.6,14.1-45.4c0.3-5.7-3.4-3.3-5.6-2.9s-3.8-1.5-5.7-0.4c-1.9,1.1-1.2,11.8-2.2,17.1
	c-1,5.3-3.8,23.4-11.3,24.7c-7.5,1.4-9.7-8.2-14.5-8.1c-5,0.1-5.1,10.2-13.4,9.6S67.2,16.5,66.5,11.8c-0.7-4.6-1-12.3-1.8-17.1
	c-0.8-4.8-5-1.7-7.3-1.9C54.8-7.3,54-8.8,52.2-7.3z M85.8,2.1c1.1,8.5,3.8,17.6,5,19c2.3,2.5,6.2,1.3,7.2-1.1s0.6-13,0-19.4
	c-0.6-6.5-1.1-8.8-2.1-11.5c-0.9-2.7-5.7-2.8-8-1.8C85.4-11.7,84.9-5.2,85.8,2.1z M85.5-27.5c0,3.6,2.9,6.6,6.6,6.6
	c3.6,0,6.6-2.9,6.6-6.6c0-3.6-2.9-6.6-6.6-6.6C88.5-34.1,85.5-31.2,85.5-27.5z"/>
</svg>
